<svg width="32" height="32" viewBox="0 0 32 32" fill="none" xmlns="http://www.w3.org/2000/svg">
<path d="M25.9994 20.9738V23.9846C26.0005 24.2642 25.9432 24.5408 25.831 24.7969C25.7188 25.053 25.5542 25.2829 25.3478 25.4719C25.1415 25.6608 24.8978 25.8047 24.6325 25.8942C24.3672 25.9838 24.0861 26.017 23.8072 25.9919C20.7128 25.6563 17.7404 24.601 15.1289 22.9108C12.6992 21.3699 10.6393 19.3141 9.09534 16.8892C7.39586 14.271 6.33824 11.2901 6.00816 8.18795C5.98303 7.91042 6.01608 7.63071 6.1052 7.36663C6.19432 7.10254 6.33757 6.85987 6.52581 6.65407C6.71405 6.44826 6.94317 6.28383 7.19858 6.17123C7.45398 6.05864 7.73008 6.00036 8.0093 6.0001H11.0261C11.5141 5.9953 11.9872 6.16778 12.3572 6.48537C12.7273 6.80297 12.969 7.24401 13.0373 7.72629C13.1646 8.68982 13.4007 9.63587 13.7412 10.5464C13.8765 10.9056 13.9058 11.296 13.8256 11.6713C13.7454 12.0466 13.559 12.3911 13.2887 12.664L12.0116 13.9386C13.4431 16.4512 15.5276 18.5315 18.0451 19.9602L19.3222 18.6856C19.5956 18.4158 19.9408 18.2298 20.3169 18.1498C20.6929 18.0698 21.0841 18.099 21.444 18.234C22.3564 18.5738 23.3043 18.8095 24.2698 18.9365C24.7582 19.0053 25.2044 19.2509 25.5233 19.6265C25.8422 20.0021 26.0116 20.4817 25.9994 20.9738Z" stroke="#0450DA" strokeWidth="3" strokeLinecap="round" strokeLinejoin="round"/>
</svg>
