<?xml version="1.0" encoding="utf-8"?>
<!-- Generator: Adobe Illustrator 24.3.0, SVG Export Plug-In . SVG Version: 6.00 Build 0)  -->
<svg version="1.1" id="Layer_1" xmlns="http://www.w3.org/2000/svg" xmlns:xlink="http://www.w3.org/1999/xlink" x="0px" y="0px"
	 viewBox="0 0 1080 1080" style="enable-background:new 0 0 1080 1080;" xml:space="preserve">
<style type="text/css">
	.st0{fill:#0A4DB8;}
</style>
<g>
	<path className="st0" d="M610.01,499.25c-2.56-4.43-8.22-5.95-12.65-3.39l-48.1,27.77v-55.54c0-5.12-4.15-9.26-9.26-9.26
		c-5.12,0-9.26,4.15-9.26,9.26v55.54l-48.1-27.77c-4.43-2.56-10.1-1.04-12.65,3.39c-2.56,4.43-1.04,10.09,3.39,12.65l48.1,27.77
		l-48.1,27.77c-4.43,2.56-5.95,8.22-3.39,12.65c1.71,2.97,4.83,4.63,8.03,4.63c1.57,0,3.16-0.4,4.62-1.24l48.1-27.77v55.54
		c0,5.12,4.15,9.26,9.26,9.26c5.12,0,9.26-4.15,9.26-9.26v-55.54l48.1,27.77c1.46,0.84,3.05,1.24,4.62,1.24
		c3.2,0,6.31-1.66,8.03-4.63c2.56-4.43,1.04-10.09-3.39-12.65l-48.1-27.77l48.1-27.77C611.05,509.34,612.57,503.68,610.01,499.25z"
		/>
	
		<ellipse transform="matrix(0.9871 -0.1602 0.1602 0.9871 -56.395 91.6378)" className="st0" cx="540.19" cy="395.61" rx="13.57" ry="13.57"/>
	<circle className="st0" cx="664.83" cy="466.86" r="13.57"/>
	<circle className="st0" cx="664.83" cy="612.48" r="13.57"/>
	
		<ellipse transform="matrix(0.7071 -0.7071 0.7071 0.7071 -325.7727 582.2901)" className="st0" cx="540" cy="684.39" rx="13.57" ry="13.57"/>
	
		<ellipse transform="matrix(0.3827 -0.9239 0.9239 0.3827 -309.566 761.6659)" className="st0" cx="415.17" cy="612.48" rx="13.57" ry="13.57"/>
	
		<ellipse transform="matrix(0.9732 -0.2298 0.2298 0.9732 -96.1548 107.8755)" className="st0" cx="415.17" cy="466.86" rx="13.57" ry="13.57"/>
	<path className="st0" d="M603.5,439.59c4.13,0,7.48-3.35,7.48-7.48s-3.35-7.48-7.48-7.48s-7.48,3.35-7.48,7.48
		S599.37,439.59,603.5,439.59z"/>
	<path className="st0" d="M477.14,439.05c3.98,0,7.21-3.23,7.21-7.21s-3.23-7.21-7.21-7.21c-3.98,0-7.21,3.23-7.21,7.21
		S473.16,439.05,477.14,439.05z"/>
	<path className="st0" d="M422.38,539.67c0-3.98-3.23-7.21-7.21-7.21c-3.98,0-7.21,3.23-7.21,7.21c0,3.98,3.23,7.21,7.21,7.21
		C419.15,546.88,422.38,543.65,422.38,539.67z"/>
	<path className="st0" d="M476.6,639.98c-3.98,0-7.21,3.23-7.21,7.21c0,3.98,3.23,7.21,7.21,7.21s7.21-3.23,7.21-7.21
		C483.81,643.2,480.58,639.98,476.6,639.98z"/>
	<path className="st0" d="M602.41,639.98c-3.98,0-7.21,3.23-7.21,7.21c0,3.98,3.23,7.21,7.21,7.21c3.98,0,7.21-3.23,7.21-7.21
		C609.62,643.2,606.39,639.98,602.41,639.98z"/>
	<path className="st0" d="M657.62,539.67c0,3.98,3.23,7.21,7.21,7.21c3.98,0,7.21-3.23,7.21-7.21c0-3.98-3.23-7.21-7.21-7.21
		C660.85,532.46,657.62,535.69,657.62,539.67z"/>
</g>
</svg>
